<svg xmlns="http://www.w3.org/2000/svg" viewBox="0 0 1080 1080"><path fill="#fff" d="M239.2 771h-12l-6.7-14.7h-39l-6.7 14.7h-11.9l21.7-47.8c3.3-7.4 7.4-12.6 16.4-12.6s13 5.2 16.4 12.6zm-32.7-45.3c-1.2-2.5-2.6-4-5.5-4s-4.3 1.5-5.5 4l-9 19.5h28.9zM254.9 711.5v34.9c0 9.7 3.3 12.4 14.4 12.4h35.3V771h-35.2c-17.5 0-25.6-6.8-25.6-24.6v-35zM335.2 723.3c-10.3 0-13.4 4.4-14.2 12.4h55.2v11H321c.8 8 3.9 12.3 14.2 12.3h42v12h-42c-19 0-25.5-10.2-25.5-29.8s6.6-29.7 25.5-29.7h42v11.8zM440.3 771l-11.6-17.4c-1.4-2.3-5.3-7.4-10.2-7.4h-18.6V771h-11.1v-59.5h11V735h17.4c4.9 0 8.9-5.1 10.4-7.3l11.3-16.3h14.8L437.2 733a24 24 0 0 1-8.2 7.4c4.4 1.6 7.3 4.7 9.5 7.7L455 771zM533.1 771h-11.9l-6.7-14.7h-39l-6.8 14.7H457l21.7-47.8c3.3-7.4 7.3-12.6 16.4-12.6s13 5.2 16.4 12.6zm-32.6-45.3c-1.2-2.5-2.7-4-5.5-4s-4.4 1.5-5.5 4l-9 19.5h28.9zM603.4 738.5V771h-42c-18.9 0-25.4-10.3-25.4-29.9s6.5-29.6 25.5-29.6h41.3v12h-41.3c-12.7 0-14.2 6.2-14.2 17.6s1.6 17.7 14.2 17.7h30.8v-20.3zM638.4 723.3c-10.4 0-13.5 4.4-14.2 12.4h55.2v11h-55.3c.8 8 4 12.3 14.3 12.3h42v12h-42c-19 0-25.5-10.2-25.5-29.8s6.5-29.7 25.5-29.7h42v11.8zM703 771h-11v-59.5h7.8c14.2 0 18 5.1 31.5 25.9 12.6 19.6 13.5 21 19.2 21h.1v-47h11V771H754c-13.1 0-17-4.7-31.5-26-13.6-20-14-21-19.3-21zM839.9 723.6h-42c-12.6 0-14.1 6.2-14.1 17.6s1.5 17.6 14.2 17.6h41.9V771h-42c-19 0-25.4-10.2-25.4-29.8s6.5-29.7 25.5-29.7h41.9zM860.2 711.5l16.3 22c1.6 2.2 3.7 4.5 5.2 7.6 1.6-3 3.7-5.4 5.4-7.6l16.2-22h16.1l-26.1 32c-1.7 2.2-6 6.9-6 10.4v17h-11v-17c0-3.6-4.4-8.3-6-10.3L844 711.5zM540 426 439.1 631.8s75-40 100.9-40.2 101.4 39 101.4 39z"/><path fill="#fff" d="M386.7 620.2c-59-66.9-71.8-160.4-27.5-239a209 209 0 0 1 301.7-67.7 204 204 0 0 1 58.7 271c-7.5 12.7-18.2 25.3-26.5 37.2l-1.3-2.2S540.1 331.7 540 331.7"/></svg>