<svg xmlns="http://www.w3.org/2000/svg" viewBox="0 0 1080 1080"><defs><linearGradient id="a" x1="441.41" x2="643.7" y1="533.5" y2="533.5" gradientUnits="userSpaceOnUse"><stop offset="0" stop-color="#120135"/><stop offset=".14" stop-color="#2f005d"/><stop offset=".25" stop-color="#430078"/><stop offset=".32" stop-color="indigo"/><stop offset=".47" stop-color="#4e0687"/><stop offset=".66" stop-color="#581798"/><stop offset=".88" stop-color="#6833b3"/><stop offset="1" stop-color="#7346c6"/></linearGradient><linearGradient id="b" x1="368.71" x2="714.84" y1="381" y2="579.24" gradientUnits="userSpaceOnUse"><stop offset="0" stop-color="#25014a"/><stop offset=".06" stop-color="#32005d"/><stop offset=".15" stop-color="#3f0071"/><stop offset=".24" stop-color="#48007d"/><stop offset=".32" stop-color="indigo"/><stop offset=".69" stop-color="#5f24a5"/><stop offset="1" stop-color="#7346c6"/></linearGradient></defs><path fill="url(#a)" d="M542.1 430.7 441.41 636.3s74.91-40.06 100.86-40.22c25.99-.15 101.42 38.99 101.42 38.99L542.09 430.7Z"/><path fill="url(#b)" d="M541.99 336.32c.17 0 150 284.21 150 284.21l3.18 5.78c8.33-11.96 20.57-26.95 27.91-39.62 53.39-92.1 25.53-209.8-63.33-270.53-101.78-69.55-235.7-35.98-297.07 67.39-46.07 77.6-32.94 174.4 26.13 241.28z"/><path d="M241.41 775.52h-11.92l-6.73-14.7h-39.01l-6.73 14.7h-11.84l21.67-47.75c3.33-7.39 7.35-12.61 16.41-12.61s13 5.22 16.41 12.61l21.75 47.75Zm-32.66-45.23c-1.16-2.52-2.63-4.09-5.49-4.09s-4.33 1.57-5.5 4.09l-8.98 19.48h28.87zM257.11 716.02v34.88c0 9.74 3.33 12.44 14.47 12.44h35.29v12.18h-35.29c-17.49 0-25.54-6.78-25.54-24.61v-34.88zM337.44 727.85c-10.37 0-13.47 4.44-14.24 12.35h55.26v11.13H323.2c.77 7.91 3.87 12.26 14.24 12.26h41.95v11.92h-41.95c-18.96 0-25.54-10.18-25.54-29.75s6.58-29.75 25.54-29.75h41.95v11.83zM442.46 775.52l-11.53-17.39c-1.47-2.26-5.34-7.39-10.22-7.39h-18.65v24.79h-11.07v-59.49h11.07v23.66h17.34c4.88 0 8.9-5.13 10.45-7.31l11.3-16.35h14.78l-16.56 21.57c-2.01 2.7-4.57 5.48-8.13 7.31 4.41 1.65 7.28 4.7 9.44 7.74l16.56 22.87zM535.32 775.52H523.4l-6.73-14.7h-39.01l-6.73 14.7h-11.84l21.67-47.75c3.33-7.39 7.35-12.61 16.41-12.61s13 5.22 16.41 12.61l21.75 47.75Zm-32.65-45.23c-1.16-2.52-2.63-4.09-5.5-4.09s-4.33 1.57-5.49 4.09l-8.98 19.48h28.87zM605.59 743.07v32.44h-41.95c-18.96 0-25.46-10.26-25.46-29.83s6.5-29.66 25.46-29.66h41.33v12.09h-41.33c-12.62 0-14.16 6.17-14.16 17.57s1.55 17.66 14.16 17.66h30.88v-20.26zM640.57 727.85c-10.37 0-13.47 4.44-14.24 12.35h55.26v11.13h-55.26c.77 7.91 3.87 12.26 14.24 12.26h41.95v11.92h-41.95c-18.96 0-25.54-10.18-25.54-29.75s6.58-29.75 25.54-29.75h41.95v11.83zM705.19 775.52h-11.07v-59.49h7.82c14.24 0 18.11 5.13 31.5 25.92 12.62 19.57 13.54 20.96 19.27 20.96h.08v-46.88h11.07v59.49h-7.82c-13.08 0-17.03-4.7-31.5-26.01-13.54-19.92-13.93-20.87-19.27-20.87h-.08zM842.01 728.11h-41.87c-12.69 0-14.24 6.26-14.24 17.66s1.55 17.57 14.24 17.57h41.87v12.18h-41.87c-19.04 0-25.54-10.18-25.54-29.75s6.5-29.75 25.54-29.75h41.87zM862.36 716.02l16.25 22c1.62 2.26 3.71 4.52 5.26 7.57 1.55-3.04 3.64-5.3 5.34-7.57l16.25-22h16.1l-26.16 32.09c-1.7 2.09-5.96 6.78-5.96 10.35v17.05h-11.07v-17.05c0-3.65-4.33-8.35-5.96-10.35l-26.16-32.09z"/></svg>