<?xml version="1.0" encoding="UTF-8"?>
<svg id="a" data-name="Capa 1" xmlns="http://www.w3.org/2000/svg" xmlns:xlink="http://www.w3.org/1999/xlink" viewBox="0 0 400 200">
  <defs>
    <clipPath id="b">
      <rect x="72.48" y="-15.95" width="255.04" height="255.04" fill="none"/>
    </clipPath>
    <clipPath id="c">
      <rect x="72.48" y="-15.95" width="255.04" height="255.04" fill="none"/>
    </clipPath>
    <clipPath id="d">
      <rect x="72.48" y="-15.95" width="255.04" height="255.04" fill="none"/>
    </clipPath>
    <clipPath id="e">
      <rect x="72.48" y="-15.95" width="255.04" height="255.04" fill="none"/>
    </clipPath>
    <clipPath id="f">
      <rect x="72.48" y="-15.95" width="255.04" height="255.04" fill="none"/>
    </clipPath>
    <clipPath id="g">
      <rect x="72.48" y="-15.95" width="255.04" height="255.04" fill="none"/>
    </clipPath>
    <clipPath id="h">
      <rect x="72.48" y="-15.95" width="255.04" height="255.04" fill="none"/>
    </clipPath>
    <clipPath id="i">
      <rect x="72.48" y="-15.95" width="255.04" height="255.04" fill="none"/>
    </clipPath>
    <clipPath id="j">
      <rect x="72.48" y="-15.95" width="255.04" height="255.04" fill="none"/>
    </clipPath>
    <clipPath id="k">
      <rect x="72.48" y="-15.95" width="255.04" height="255.04" fill="none"/>
    </clipPath>
    <clipPath id="l">
      <rect x="72.48" y="-15.95" width="255.04" height="255.04" fill="none"/>
    </clipPath>
    <clipPath id="m">
      <rect x="72.48" y="-15.95" width="255.04" height="255.04" fill="none"/>
    </clipPath>
    <clipPath id="n">
      <rect x="72.48" y="-15.95" width="255.04" height="255.04" fill="none"/>
    </clipPath>
    <clipPath id="o">
      <rect x="72.48" y="-15.95" width="255.04" height="255.04" fill="none"/>
    </clipPath>
    <clipPath id="p">
      <rect x="72.48" y="-15.95" width="255.04" height="255.04" fill="none"/>
    </clipPath>
    <clipPath id="q">
      <rect x="72.48" y="-15.95" width="255.04" height="255.04" fill="none"/>
    </clipPath>
  </defs>
  <g clip-path="url(#b)">
    <g clip-path="url(#c)">
      <path d="M208.04,174.05h-7.69l-1.23,3.07c-1.3,3.23-.72,4.5,2.46,4.92v.45h-8.14v-.45c2.26-.54,3.3-2.23,4.59-5.39l6.6-16.87h3.71l7.79,19.8c.65,1.63.8,2.02,3.33,2.4v.5h-12.66v-.45c3.28-.16,3.97-.8,3.35-2.4l-2.12-5.59ZM207.8,173.41l-3.45-9.04h-.17l-3.59,9.04h7.21Z" fill="#28306a"/>
    </g>
    <g clip-path="url(#d)">
      <path d="M106.27,182.04c3.21-.35,3.51-1.79,3.51-5.05v-12.97c0-1.92-.57-3.32-3.51-3.38v-.41h10.49l6.77,15.78h.17l6.05-15.78h9.3v.41c-2.77.1-3.42.54-3.42,1.66v18.11c0,1.12.65,1.53,3.42,1.63v.45h-12.27v-.45c2.12-.1,3.18-.45,3.18-1.63v-17.95h-.17l-7.73,20.02h-.65l-9.06-20.02h-.93v14.53c0,3.26,1.16,4.66,4.55,5.05v.45h-9.7v-.45Z" fill="#28306a"/>
    </g>
    <g clip-path="url(#e)">
      <path d="M142.09,171.43c0-7.12,4.13-11.75,11.21-11.75s11.82,4.52,11.82,11.67-4.71,11.67-11.82,11.67-11.21-4.41-11.21-11.6M159.17,171.34c0-7.63-1.98-11.05-6-11.05s-5.69,3.42-5.69,11.05,1.94,11.08,6,11.08,5.69-3.42,5.69-11.08" fill="#28306a"/>
    </g>
    <g clip-path="url(#f)">
      <path d="M172.26,164.6h-.03v12.39c0,3.26,1.26,4.73,4.75,5.05v.45h-9.84v-.45c3.21-.35,4.24-1.79,4.24-5.05v-12.58c0-1.98-1.3-3.58-4.24-3.77v-.41h8.68l12.85,15.36h.03v-9.9c0-3.19-1.37-4.7-4.82-5.05v-.41h9.91v.41c-3.21.42-4.24,1.85-4.24,5.05v17.09h-2.02l-15.28-18.17Z" fill="#28306a"/>
    </g>
    <g clip-path="url(#g)">
      <path d="M229.36,180.41c0,1.18,1.06,1.53,3.21,1.63v.45h-11.38v-.5c2.77-.1,2.43-.45,2.43-1.57v-18.11c0-1.12.34-1.51-2.43-1.6v-.47h11.35c7.18,0,9.57,2.52,9.57,5.4,0,2.71-1.81,4.69-7.25,5.43v.1c5.02.1,6.46,2.17,6.84,4.98l.24,2.97c.34,2.43.79,2.81,3.52,2.91v.41c-1.37.16-2.56.19-3.66.19-4.79,0-5.5-1.24-5.74-3.99l-.24-2.68c-.31-3.26-1.23-4.5-5.02-4.5h-1.44v8.97ZM231.3,170.92c4,0,4.92-1.12,4.92-4.95,0-3.29-1.23-5.21-5.23-5.21h-1.64v10.16h1.95Z" fill="#28306a"/>
    </g>
    <g clip-path="url(#h)">
      <path d="M246.94,171.78c0-7.6,5.98-12.1,12.96-12.1,2.53,0,4,.67,5.61,1.5l1.61-1.66h.41v8.72h-.55c-2.43-4.89-3.69-7.95-7.66-7.95-3.76,0-6.12,3.96-6.12,10.73s3.21,10.67,7.59,10.67c3.52,0,5.13-1.44,6.87-5.01l.65.29c-1.47,3.13-3.52,6.07-9.47,6.07-7.49,0-11.9-4.22-11.9-11.24" fill="#28306a"/>
    </g>
    <g clip-path="url(#i)">
      <path d="M282.9,174.05h-7.69l-1.23,3.07c-1.3,3.23-.72,4.5,2.46,4.92v.45h-7.78v-.45c2.26-.54,2.94-2.17,4.24-5.34l6.61-16.93h3.69l7.79,19.8c.65,1.63,1.16,2.08,3.69,2.46v.45h-13.02v-.45c3.28-.16,3.97-.8,3.35-2.4l-2.12-5.59ZM282.66,173.41l-3.45-9.04h-.17l-3.59,9.04h7.21Z" fill="#28306a"/>
    </g>
    <g clip-path="url(#j)">
      <path d="M200.09,123.91c-44.84,0-81.19,4.34-81.19,9.7s36.35,13.75,81.19,13.75,81.19-8.39,81.19-13.75-36.35-9.7-81.19-9.7M200.23,141.09c-39.9,0-72.25-4.74-72.25-7.49s32.35-4.98,72.25-4.98,72.25,2.23,72.25,4.98-32.35,7.49-72.25,7.49" fill="#b18211"/>
    </g>
    <g clip-path="url(#k)">
      <path d="M248.99,116.77l.02-54.24s-.08,0-.12,0c-2.32,0-4.47-.72-6.25-1.95l-26.02,47.21-12.4-64.53c-1.27.51-2.65.8-4.11.8-1.55,0-3.03-.32-4.37-.91l-12.35,64.55-25.6-47.23c-1.76,1.21-3.89,1.91-6.19,1.91-.21,0-.41,0-.61-.02l.08,54.4-28.23-36.21c-1.81,1.32-4.04,2.1-6.45,2.1-.24,0-.47-.01-.7-.02l3.2,50.96c0-5.36,36.35-9.7,81.19-9.7s81.19,4.34,81.19,9.7l2.37-50.89c-2.37-.01-4.56-.78-6.35-2.07l-28.31,36.13Z" fill="#c69308"/>
    </g>
    <g clip-path="url(#l)">
      <path d="M116.4,60.71c-6.06,0-10.98,4.92-10.98,10.98s4.54,10.59,10.28,10.95c.23.01.47.02.7.02,2.41,0,4.64-.78,6.45-2.1,2.74-2,4.53-5.23,4.53-8.88,0-6.06-4.92-10.98-10.98-10.98" fill="#c69308"/>
    </g>
    <g clip-path="url(#m)">
      <path d="M151.6,40.44c-6.06,0-10.98,4.92-10.98,10.98s4.59,10.64,10.36,10.96c.2.01.41.02.61.02,2.3,0,4.43-.71,6.19-1.91,2.89-1.98,4.79-5.3,4.79-9.07,0-6.06-4.92-10.98-10.98-10.98" fill="#c69308"/>
    </g>
    <g clip-path="url(#n)">
      <path d="M200.12,22.11c-6.06,0-10.98,4.92-10.98,10.98,0,4.51,2.72,8.38,6.61,10.07,1.34.58,2.82.91,4.37.91,1.45,0,2.84-.28,4.11-.8,4.03-1.63,6.87-5.57,6.87-10.18,0-6.06-4.92-10.98-10.98-10.98" fill="#c69308"/>
    </g>
    <g clip-path="url(#o)">
      <path d="M248.89,40.58c-6.06,0-10.98,4.92-10.98,10.98,0,3.74,1.87,7.04,4.73,9.03,1.77,1.23,3.93,1.95,6.25,1.95.04,0,.08,0,.12,0,6.01-.06,10.86-4.95,10.86-10.98s-4.92-10.98-10.98-10.98" fill="#c69308"/>
    </g>
    <g clip-path="url(#p)">
      <path d="M283.71,60.76c-6.06,0-10.98,4.92-10.98,10.98,0,3.67,1.8,6.91,4.56,8.91,1.79,1.29,3.98,2.06,6.35,2.07.02,0,.05,0,.07,0,6.06,0,10.98-4.92,10.98-10.98s-4.92-10.98-10.98-10.98" fill="#c69308"/>
    </g>
  </g>
</svg>