<?xml version="1.0" encoding="UTF-8"?>
<svg id="a" data-name="Capa 1" xmlns="http://www.w3.org/2000/svg" xmlns:xlink="http://www.w3.org/1999/xlink" viewBox="0 0 400 200">
  <defs>
    <clipPath id="b">
      <rect x="83.76" y="-12.37" width="232.48" height="232.48" fill="none"/>
    </clipPath>
    <clipPath id="c">
      <rect x="83.76" y="-12.37" width="232.48" height="232.48" fill="none"/>
    </clipPath>
    <clipPath id="d">
      <rect x="83.76" y="-12.37" width="232.48" height="232.48" fill="none"/>
    </clipPath>
    <clipPath id="e">
      <rect x="83.76" y="-12.37" width="232.48" height="232.48" fill="none"/>
    </clipPath>
  </defs>
  <g clip-path="url(#b)">
    <g clip-path="url(#c)">
      <path d="M160.67,72.43c0-14.26-1.62-25.94,7.23-38.08,21.18-29.06,70.34-16.35,72.21,20.31v38.65c-5.7-.56-10.94-3.09-16.68-3.45-10.59-.68-18.15,3.06-28.01,5.37-4.99,1.17-4.69.88-9.06-.45-2.11-.64-4.01-1.51-6.1-2.45-2.58-1.16-6.38-4.48-8.95-4.82-3.68-.49-7.28,2.1-10.64,3.21,0-6.1,0-12.2,0-18.3M195.33,84.92c1.46.36,3.49.36,4.95,0,7.47-.25,15.57-2.5,21.68-6.84,7.11-5.05,12.06-11.43,11.9-20.59-.06-.41-1.86.07-2.2.15-8.05,2-15.1,7.03-17.83,15.1-.78,2.31.2,2.56-2.9,2.91-12.04,1.39-26.76-10.45-27.44-22.71-.78-14.06,16.03-27.37,27.87-16.89,8.27,7.32,4.12,22.27-7.32,21.31-4.4-.37-7.72-5.52-3.55-8.62.18,3.49,4.71,5.14,7.33,2.91,3.23-2.75,2.6-8.12-.66-10.55-.25-.19-2.22-1.16-2.44-1.22-11.35-3.61-19.26,12.42-11.33,21.02,10.05,10.91,29.48,1.69,30.75-12.08,1.6-17.25-16.82-28.28-32.04-22.14-25.6,10.31-30.68,56.77,3.23,58.23" fill="#e3d7c2"/>
      <path d="M160.67,90.73v-18.3c0,6.1,0,12.2,0,18.3" fill="#9e7f4e"/>
      <path d="M195.33,84.92c-33.9-1.46-28.82-47.91-3.23-58.23,15.23-6.14,33.64,4.89,32.04,22.14-1.28,13.77-20.7,22.99-30.75,12.08-7.93-8.6-.02-24.63,11.33-21.02.22.07,2.19,1.04,2.44,1.22,3.26,2.43,3.89,7.8.66,10.55-2.62,2.23-7.15.58-7.33-2.91-4.17,3.09-.85,8.25,3.55,8.62,11.44.96,15.59-14,7.32-21.31-11.84-10.48-28.64,2.83-27.87,16.89.68,12.26,15.4,24.1,27.44,22.71,3.1-.36,2.12-.6,2.9-2.91,2.73-8.07,9.78-13.1,17.83-15.1.34-.08,2.14-.56,2.2-.15.16,9.15-4.8,15.54-11.9,20.59-6.11,4.34-14.21,6.59-21.68,6.84-1.58.05-3.37.07-4.95,0M216.86,74.8c2.35-1.08,4.55-2.89,6.25-4.84,1.07-1.22,2.58-3.03,2.79-4.63l-9.04,9.47Z" fill="#3a452b"/>
      <path d="M200.28,84.92c-1.46.36-3.49.36-4.95,0,1.58.07,3.37.05,4.95,0" fill="#9e7f4e"/>
      <path d="M208.08,109.39l10.5.07c-.09.43-.44.36-.75.42-2.25.45-4.66.19-6.89.22-5.34.07-10.84,0-16.14.22-1.13.05-2.2-.37-3.34-.23-.04-.31.56-.39.77-.41.81-.09,2.01-.23,2.78-.25,4.51-.15,8.68.4,12.92-.41l.15.37Z" fill="#3a452b"/>
      <path d="M195.68,113.63c.06.03.06.3.23.34.35.08.77-.03,1.14,0-.77,1.17-1.76-.19-1.87-.21-1.33-.3-4.07.32-5.69.09-.45-.06-1.65-.31-1.91-.74.84-.31,1.29.19,2.03.23,1.93.12,4.21-.59,6.07.28" fill="#3a452b"/>
      <path d="M236.66,109.46c.06.28-.4.35-.59.37-2.34.35-4.6-.04-6.94.16.42-.51,1.39-.48,2.05-.52,1.77-.12,3.69.02,5.48-.01" fill="#3a452b"/>
      <path d="M185,105.8s.08.45-.1.42l-1.4-.53.32-.54c.15.29,1.13.58,1.18.65" fill="#3a452b"/>
      <path d="M224.39,103c-.25.3-1.64.64-1.72-.21.4.4,2.36-.54,1.72.21" fill="#3a452b"/>
      <path d="M214.7,108.6c.33.39-.77.94-1.07.32-.19-.38.11-.24.28-.26.15-.01.77-.09.8-.06" fill="#3a452b"/>
      <path d="M213.2,108.6c.15.07-.13.37-.43.21-.15-.07.13-.37.43-.21" fill="#3a452b"/>
      <path d="M213.3,109.03c.14.07.14.14,0,.22v-.22Z" fill="#3a452b"/>
      <path d="M216.86,74.8l9.04-9.47c-.21,1.6-1.72,3.41-2.79,4.63-1.7,1.94-3.89,3.76-6.25,4.84" fill="#e3d7c2"/>
      <path d="M243.6,54.23c-1.57-29.71-32.46-46.43-59.48-36.64-14.79,5.36-26.31,19.87-27.08,35.78-.84,17.41.66,35.49,0,52.97.21,1.84.44,3.2,1.42,4.71,3.32,5.14,8.35,4.95,13.7,6.43,9.46,2.61,19.5,6.15,27.94,6.08,8.64-.07,22.95-4.83,31.38-7.15,6.33-1.74,10.92-1.73,12.11-9.85-.7-17.23.91-35.17,0-52.33M239.94,93.31c-5.69-.56-10.93-3.09-16.67-3.45-10.59-.68-18.15,3.06-28.01,5.37-4.99,1.17-4.69.88-9.06-.45-2.11-.64-4.01-1.51-6.1-2.45-2.58-1.16-6.38-4.48-8.95-4.82-3.68-.49-7.28,2.1-10.64,3.21v-18.3c0-14.26-1.62-25.94,7.23-38.08,21.18-29.06,70.34-16.35,72.21,20.31v38.65Z" fill="#3a452b"/>
    </g>
    <g clip-path="url(#d)">
      <path d="M141.83,136.55v-.64h8.62v.64c-.9.32-1.35,1.82-1.35,4.51v4.97h8.39v-4.97c0-2.68-.45-4.19-1.35-4.51v-.64h8.62v.64c-.9.32-1.35,1.82-1.35,4.51v13.35c0,2.66.45,4.17,1.35,4.52v.64h-8.62v-.64c.9-.32,1.35-1.83,1.35-4.52v-5.28h-8.39v5.28c0,2.66.45,4.17,1.35,4.52v.64h-8.62v-.64c.9-.32,1.35-1.83,1.35-4.52v-13.35c0-2.68-.45-4.19-1.35-4.51" fill="#3a452b"/>
      <path d="M188.05,141.22v9.61c0,2.82-.89,5.05-2.67,6.71-1.78,1.66-4.18,2.48-7.21,2.48s-5.46-.83-7.24-2.48c-1.78-1.65-2.67-3.89-2.67-6.72v-10.38c0-2.31-.45-3.61-1.35-3.9v-.64h8.63v.64c-.9.29-1.35,1.57-1.35,3.86v10.71c0,1.52.44,2.72,1.32,3.59.88.87,2.07,1.31,3.58,1.31s2.72-.44,3.59-1.31c.88-.88,1.31-2.07,1.31-3.59v-9.94c0-2.81-.45-4.35-1.35-4.64v-.64h6.75v.64c-.9.29-1.35,1.84-1.35,4.67" fill="#3a452b"/>
      <path d="M198.86,156.44h5.55c1.1,0,2.01-.21,2.72-.63.72-.42,1.18-1,1.4-1.75h1.25l-.79,5.51h-17.4v-.64c.9-.32,1.35-1.83,1.35-4.52v-13.35c0-2.68-.45-4.19-1.35-4.51v-.64h17.04l.81,5.48h-1.25c-.23-.74-.7-1.31-1.41-1.73-.71-.42-1.62-.63-2.72-.63h-5.2v7h2.71c1.01,0,1.83-.14,2.45-.43.62-.29,1.03-.69,1.23-1.2h1.06v6.36h-1.06c-.41-1.08-1.63-1.62-3.68-1.62h-2.71v7.31Z" fill="#3a452b"/>
      <path d="M210.88,136.55v-.64h9.28v.64c-.97.42-1.01,1.92-.12,4.51l4.34,11.52,4.14-11.19c.97-2.81.98-4.42.03-4.84l.05-.64h6.95l-.03.64c-.92.31-1.95,1.92-3.07,4.84l-7.13,18.09-3.99.26-7.39-18.69c-1.01-2.67-2.03-4.18-3.05-4.51" fill="#3a452b"/>
      <path d="M239.03,156.69c-2.01-2.22-3.01-5.2-3.01-8.95s1-6.72,3.01-8.94c2.01-2.22,4.7-3.33,8.08-3.33s6.05,1.11,8.06,3.33c2,2.22,3,5.2,3,8.94s-1,6.72-3,8.95c-2,2.22-4.69,3.33-8.06,3.33s-6.07-1.11-8.08-3.33M242.21,147.74c0,2.82.44,5.05,1.32,6.71.88,1.66,2.07,2.48,3.58,2.48s2.7-.83,3.58-2.48c.88-1.66,1.32-3.89,1.32-6.71s-.44-5.07-1.33-6.73c-.89-1.66-2.08-2.49-3.57-2.49s-2.69.83-3.57,2.49c-.89,1.66-1.33,3.91-1.33,6.73" fill="#3a452b"/>
      <path d="M144.9,165.24v-.64h7.26l9.57,13.32v-7.43c0-3.18-.45-4.93-1.35-5.25v-.64h6.65v.64c-.9.32-1.35,2.08-1.35,5.28v17.84h-3.45l-12-16.62v10.61c0,3.16.45,4.91,1.35,5.27v.64h-6.69v-.64c.9-.32,1.35-2.07,1.35-5.27v-12.61c0-2.68-.45-4.19-1.35-4.51" fill="#3a452b"/>
      <path d="M172.67,185.38c-2.01-2.22-3.01-5.2-3.01-8.95s1-6.72,3.01-8.94c2.01-2.22,4.7-3.33,8.08-3.33s6.05,1.11,8.06,3.33c2,2.22,3,5.2,3,8.94s-1,6.72-3,8.95c-2,2.22-4.69,3.33-8.06,3.33s-6.07-1.11-8.08-3.33M175.85,176.43c0,2.82.44,5.05,1.32,6.71.88,1.66,2.07,2.48,3.58,2.48s2.7-.83,3.58-2.48c.88-1.66,1.32-3.89,1.32-6.71s-.44-5.07-1.33-6.73c-.89-1.66-2.08-2.49-3.57-2.49s-2.69.83-3.57,2.49c-.89,1.66-1.33,3.91-1.33,6.73" fill="#3a452b"/>
      <path d="M204.98,188.26h-10.48v-.64c.9-.32,1.35-1.83,1.35-4.52v-13.35c0-2.68-.45-4.19-1.35-4.51v-.64h10.1c2.71,0,4.87.56,6.5,1.69,1.62,1.13,2.43,2.64,2.43,4.53,0,1.17-.31,2.2-.92,3.1-.61.9-1.48,1.63-2.6,2.18,1.43.51,2.54,1.25,3.33,2.23.79.98,1.19,2.12,1.19,3.42,0,1.98-.86,3.56-2.59,4.75-1.73,1.18-4.05,1.77-6.97,1.77M201.76,167.71v6.97h2.71c.9,0,1.61-.31,2.11-.93.51-.62.76-1.48.76-2.58s-.26-1.91-.77-2.53c-.51-.62-1.21-.92-2.1-.92h-2.71ZM201.76,177.75v7.38h3.32c1.01,0,1.81-.33,2.39-1,.58-.67.87-1.58.87-2.73s-.29-2.01-.87-2.67c-.58-.65-1.38-.98-2.39-.98h-3.32Z" fill="#3a452b"/>
      <path d="M234.07,188.26h-17.1v-.64c.9-.32,1.35-1.83,1.35-4.52v-13.35c0-2.69-.45-4.19-1.35-4.51v-.64h8.62v.64c-.9.32-1.35,1.82-1.35,4.51v15.38h5.23c1.12,0,2.05-.24,2.77-.72.73-.48,1.2-1.14,1.42-1.99h1.22l-.81,5.84Z" fill="#3a452b"/>
      <path d="M243.76,185.13h5.55c1.1,0,2.01-.21,2.72-.63.72-.42,1.18-1,1.4-1.75h1.25l-.79,5.51h-17.4v-.64c.9-.32,1.35-1.83,1.35-4.52v-13.35c0-2.68-.45-4.19-1.35-4.51v-.64h17.04l.81,5.48h-1.25c-.23-.74-.7-1.31-1.41-1.73-.71-.42-1.62-.63-2.72-.63h-5.2v7h2.71c1.01,0,1.83-.14,2.45-.43.62-.29,1.03-.69,1.23-1.2h1.06v6.36h-1.06c-.41-1.08-1.63-1.62-3.68-1.62h-2.71v7.31Z" fill="#3a452b"/>
    </g>
    <g clip-path="url(#e)">
      <path d="M160.64,102.35h79.43v4.09s-35.91-.87-41.07.48c-3.72.98,40.85.91,40.85.91,0,0-1.03,4.46-6.84,4.41,0,0-35.71-1.16-38.6.77-1.01.68,32.09,1.18,32.09,1.18l-21.02,5.36-2.9.49-2.34.21s-1.51,0-5.11-.62l-1.85-.33s-21.02-5-22.31-5.98l17.82-2.03s-11.06-.97-21.2.82c0,0-5.28.22-6.31-4.6l16.48-1.01s-8.36-1.36-16.77-.28c0,0-.56-1.62-.36-3.88" fill="#9f7f4d"/>
    </g>
  </g>
</svg>