<?xml version="1.0" encoding="UTF-8"?>
<svg id="a" data-name="Capa 1" xmlns="http://www.w3.org/2000/svg" xmlns:xlink="http://www.w3.org/1999/xlink" viewBox="0 0 400 200">
  <defs>
    <clipPath id="b">
      <rect x="1.74" y="-98" width="396.51" height="396.51" fill="none"/>
    </clipPath>
    <clipPath id="c">
      <rect x="1.74" y="-98" width="396.51" height="396.51" fill="none"/>
    </clipPath>
    <clipPath id="d">
      <rect x="1.74" y="-98" width="396.51" height="396.51" fill="none"/>
    </clipPath>
    <clipPath id="e">
      <rect x="1.74" y="-98" width="396.51" height="396.51" fill="none"/>
    </clipPath>
    <clipPath id="f">
      <rect x="1.74" y="-98" width="396.51" height="396.51" fill="none"/>
    </clipPath>
  </defs>
  <g clip-path="url(#b)">
    <g clip-path="url(#c)">
      <path d="M117.7,93.98l1.77.35c.06.65.09,1.41.09,2.3,0,6.13-.85,11.84-2.56,17.14-3.95,4.36-9.31,7.92-16.08,10.69-8.66,3.53-17.32,5.3-25.98,5.3-6.42,0-11.49-1.55-15.2-4.64-3.71-3.09-5.57-7.35-5.57-12.77s1.83-11.5,5.48-17.72c3.65-6.21,8.45-11.59,14.4-16.13,4.95-3.77,10.44-6.76,16.48-8.97,6.04-2.21,11.71-3.31,17.01-3.31,3.95,0,7.56,1.02,10.83,3.05,3.27,2.03,5.85,4.82,7.73,8.35l-11.84,11.93c-1-2.65-2.42-4.77-4.24-6.36-1.83-1.59-3.74-2.39-5.74-2.39-5.77,0-12.61,3.45-20.5,10.34-3.53,3.06-6.36,6.38-8.48,9.94-2.12,3.57-3.18,6.73-3.18,9.5,0,1.83.59,3.37,1.77,4.64,1.18,1.27,2.62,1.9,4.33,1.9,2.95,0,7.08-.97,12.42-2.92,5.33-1.94,9.82-4.12,13.48-6.54,4.01-2.65,8.54-7.22,13.61-13.7" fill="#b61e27"/>
      <path d="M149.42,75.67l6.45,2.99c-1.22,2.2-1.83,4.35-1.83,6.45,0,1.92.43,3.48,1.28,4.66.86,1.19,1.97,1.78,3.33,1.78.42,0,.94-.11,1.57-.31l.42,1.21c-.66,1.01-1.76,2.2-3.28,3.56-1.52,1.36-2.67,2.22-3.43,2.57-1.29-.24-2.45-.54-3.46-.89-1.5-1.68-2.94-3.49-4.3-5.45-2.59,1.99-4.73,3.37-6.42,4.14-1.7.77-3.45,1.15-5.27,1.15-1.92,0-3.49-.55-4.69-1.65-1.21-1.1-1.81-2.52-1.81-4.27,0-4.12,1.49-8.32,4.46-12.58,2.2-3.18,4.82-4.77,7.86-4.77,1.99,0,3.95.54,5.87,1.62l-2.36,6.71c-1.22-.38-2.22-.58-2.99-.58s-1.52.63-2.25,1.89c-.73,1.26-1.1,2.57-1.1,3.93,0,.87.42,1.31,1.26,1.31.59,0,1.41-.23,2.44-.68,1.03-.45,1.92-1,2.67-1.62.75-.63,1.2-1.48,1.34-2.57.17-1.36.7-2.92,1.57-4.66.87-1.75,1.76-3.06,2.67-3.93" fill="#b61e27"/>
      <path d="M158.12,77.76l6.87-4.19c2.62.59,5.03,2.06,7.23,4.4,3.11-2.48,5.8-3.72,8.07-3.72,1.05,0,1.9.33,2.54,1,.65.66.97,1.54.97,2.62,0,.39-.1,1.35-.31,2.88l-.42,3.04c-1.99.42-3.97.91-5.92,1.47l-.52-1.62c-.28-.84-.61-1.26-1-1.26-.84,0-1.61,1.19-2.31,3.56-.7,2.38-1.05,5-1.05,7.86,0,.84.02,1.66.05,2.46l-8.33,1.47v-.79l.16-5.71c.14-4.47-.18-7.51-.94-9.12-.7-1.5-2.39-2.95-5.08-4.35" fill="#b61e27"/>
      <path d="M246.6,60.73l2.2,1.47c.77,3.18,1.73,5.67,2.88,7.47,1.15,1.8,2.79,3.38,4.93,4.74-1.33,1.26-2.66,2.32-3.98,3.2-.35,4.3-1.57,8.46-3.67,12.48-3.32,6.29-7.9,9.44-13.73,9.44s-10.03-3.16-12.27-9.49c-3.84,2.1-6.8,4.04-8.86,5.82-1.15.98-1.73,2.34-1.73,4.09v.47c-.7.14-1.12.21-1.26.21l-3.51.68c-.39.11-.77.19-1.15.26-.87.24-1.73.51-2.57.79l-.79.26c.56-2.69.91-5.91,1.05-9.64v-9.75c0-5.52-.21-9.36-.63-11.53-.42-2.17-1.24-3.69-2.46-4.56-.1-.03-.16-.1-.16-.21s.16-.3.47-.58l6.5-5.66c4.4,2.27,6.6,6.68,6.6,13.21,0,1.99-.11,4.05-.31,6.19-.42,4.23-.65,7.18-.68,8.86,3.07-2.73,5.92-4.82,8.54-6.29-.04-.28-.05-.59-.05-.94,0-1.82.51-3.74,1.52-5.77l10.12-2.99c-1.4,3.11-2.1,6.24-2.1,9.38,0,2.41.49,4.41,1.47,6,.98,1.59,2.2,2.39,3.67,2.39,1.78,0,3.29-1.35,4.53-4.06,1.24-2.71,1.86-6.02,1.86-9.93,0-.59-.02-1.14-.05-1.63-.45-.42-.73-.7-.84-.84-1.47-1.64-2.2-3.69-2.2-6.13,0-.11.03-.54.11-1.31l6.55-6.08Z" fill="#b61e27"/>
      <path d="M277.9,75.67l6.45,2.99c-1.22,2.2-1.83,4.35-1.83,6.45,0,1.92.43,3.48,1.28,4.66.86,1.19,1.97,1.78,3.33,1.78.42,0,.94-.11,1.57-.31l.42,1.21c-.66,1.01-1.76,2.2-3.28,3.56-1.52,1.36-2.67,2.22-3.43,2.57-1.29-.24-2.45-.54-3.46-.89-1.5-1.68-2.94-3.49-4.3-5.45-2.59,1.99-4.73,3.37-6.42,4.14-1.7.77-3.45,1.15-5.27,1.15-1.92,0-3.49-.55-4.69-1.65-1.21-1.1-1.81-2.52-1.81-4.27,0-4.12,1.49-8.32,4.46-12.58,2.2-3.18,4.82-4.77,7.86-4.77,1.99,0,3.95.54,5.87,1.62l-2.36,6.71c-1.22-.38-2.22-.58-2.99-.58s-1.52.63-2.25,1.89c-.73,1.26-1.1,2.57-1.1,3.93,0,.87.42,1.31,1.26,1.31.59,0,1.41-.23,2.44-.68,1.03-.45,1.92-1,2.67-1.62.75-.63,1.2-1.48,1.34-2.57.17-1.36.7-2.92,1.57-4.66.87-1.75,1.76-3.06,2.67-3.93" fill="#b61e27"/>
    </g>
    <g clip-path="url(#d)">
      <path d="M318.67,69.85l-2.02,4.03-.26.37-7.72,1.42c-.31.49-.47,1.1-.47,1.83,0,1.78,1.61,4.63,4.82,8.54,1.71,2.06,2.57,3.88,2.57,5.45,0,2.38-1.21,4.2-3.64,5.48-2.43,1.28-5.86,1.91-10.3,1.91s-8.18-.73-11.22-2.2c-.59-2.03-.89-3.63-.89-4.82,0-.45.02-.86.05-1.21l7.55-1.26c.31,1.33.68,2.34,1.1,3.04,1.08.45,1.97.68,2.67.68.98,0,1.81-.21,2.49-.63.68-.42,1.02-.93,1.02-1.52,0-.52-.51-1.59-1.52-3.2-1.43-2.27-2.32-3.9-2.67-4.87-2.83,1.22-3.91,2.03-7.33,4.37l-1.5-4.7c.63-.42,1.66-1.07,3.09-1.94.77-.35,2.27-1.15,4.51-2.41l.08-.41c.17-1.4,3.54-6.28,4.45-8.07.66,0,1.05.02,1.15.05l4.4.11c1.12,0,8.34.12,9.6-.05" fill="#b61e27"/>
    </g>
    <g clip-path="url(#e)">
      <path d="M329.72,96.16l-8.54,3.35,1.1-21.81-2.31-3.56c1.05-2.66,2.42-5.56,4.11-8.73,1.69-3.16,3.07-5.37,4.11-6.63l7.08,5.35c-1.96,2.76-3.28,5.15-3.96,7.15-.68,2.01-1.02,4.52-1.02,7.52,0,.24.03,1.17.1,2.78,1.19-1.85,2.22-3.2,3.09-4.04,1.99-1.92,4.39-2.88,7.18-2.88,2.27,0,4.04.77,5.29,2.31,1.26,1.54,1.89,3.7,1.89,6.5,0,1.71-.21,3.28-.63,4.69-.42,1.42-1.26,3.38-2.52,5.9.14.04.24.05.31.05l3.51-.26c.28-.03.61.14,1,.52.21.21.33.58.37,1.1-3.77.87-8.72,2.97-14.83,6.29l-1.99-2.36c3.56-2.45,5.35-6.03,5.35-10.75,0-2.97-1.07-4.46-3.2-4.46-1.57,0-2.91.87-4.01,2.62-1.1,1.75-1.65,3.86-1.65,6.34,0,.73.05,1.73.16,2.99" fill="#b61e27"/>
    </g>
    <polygon points="148.98 120.88 144.05 131.12 138.82 117.97 135.57 122.11 136.02 138.89 144.4 140.03 139.36 152.76 128.78 140.56 128.3 125.74 139.6 111.51 148.98 120.88" fill="#203b90"/>
    <path d="M173.51,125.45l1.56,17.94-10.94,8.79-13.71-9.59-2.04-14.74,7.63-14.16h9.62l5.71,6.1,2.16,5.66ZM166.24,143.39l-1.38-14.89-8.11-9.59-1.44,2.69,4.75,16.12,6.19,5.66Z" fill="#203b90"/>
    <polygon points="197.62 120.88 192.69 131.12 187.46 117.97 184.21 122.11 183.58 138.78 194.78 140.03 188 152.76 177.42 140.56 176.94 125.74 188.24 111.51 197.62 120.88" fill="#203b90"/>
    <path d="M222.15,125.45l1.56,17.94-10.97,9.65-13.68-10.45-2.04-14.74,7.63-14.16h9.62l5.71,6.1,2.16,5.66ZM214.88,143.39l-1.38-14.89-8.11-9.59-1.44,2.69,4.75,16.12,6.19,5.66Z" fill="#203b90"/>
    <polygon points="243.73 113.54 250.28 121.6 244.45 129.96 238.56 126.18 236.67 151.81 228.13 151.81 228.28 127.05 223.05 122.91 232.31 113.04 237.9 122.4 243.73 113.54" fill="#203b90"/>
    <path d="M273.87,125.45l1.56,17.94-10.93,9.73-13.72-10.53-2.04-14.74,7.63-14.16h9.62l5.71,6.1,2.16,5.66ZM266.6,143.39l-1.38-14.89-8.11-9.59-1.44,2.69,4.75,16.12,6.19,5.66Z" fill="#203b90"/>
    <path d="M277.78,122.11l8.66-8.21h14.07l-4.63,10.82,4.57,3.12-1.2,15.25-12.2,10.02-11.66-7.7,8.11-12.2,8.6,11.18-2.4-14.09h-11.12l-.78-8.21ZM286.26,118.92v7.48l8.42-1.6-8.42-5.88Z" fill="#203b90"/>
    <g clip-path="url(#f)">
      <path d="M374.57,49.51s-29.29,116.97-67.63,85.08c0,0-3.81,24,26.58,16.84,33.59-7.93,41.05-101.91,41.05-101.91" fill="#203b90"/>
      <path d="M120.61,51.39s-84.47,10.33-81.4,59.81c3.07,49.48,81.4,22.78,81.4,22.78,0,0-74.12,45.76-96.99-2.88C5.78,93.17,40.28,65.44,59.17,57.88c14.34-5.74,33.03-11.43,61.44-6.49" fill="#203b90"/>
    </g>
  </g>
</svg>