<?xml version="1.0" encoding="UTF-8"?>
<svg id="a" data-name="Capa 2" xmlns="http://www.w3.org/2000/svg" xmlns:xlink="http://www.w3.org/1999/xlink" viewBox="0 0 256 256">
  <defs>
    <clipPath id="b">
      <rect y="3.41" width="256" height="256" fill="none"/>
    </clipPath>
    <clipPath id="c">
      <path d="M98.04,152.38s22.94-12.27,30.89-12.32c7.96-.05,31.07,11.94,31.07,11.94l-31.12-62.6-30.84,62.97Z" fill="none"/>
    </clipPath>
    <linearGradient id="d" data-name="Degradado sin nombre 6" x1="-1.21" y1="-2.7" x2="-.97" y2="-2.7" gradientTransform="translate(413.61 -584.37) scale(261.4 -261.4)" gradientUnits="userSpaceOnUse">
      <stop offset="0" stop-color="#623cea"/>
      <stop offset="1" stop-color="#1f45ab"/>
    </linearGradient>
    <clipPath id="e">
      <path d="M73.53,75.64c-13.56,24.09-9.66,52.75,8.43,73.23l46.7-88.35c.05,0,46.75,88.13,46.75,88.13l.39.67c2.55-3.66,5.82-7.52,8.11-11.38,16.68-28.14,8.7-64.34-17.98-83.01-11.26-7.88-24.11-11.63-36.81-11.63-22.17,0-43.84,11.45-55.59,32.33" fill="none"/>
    </clipPath>
    <linearGradient id="f" data-name="Degradado sin nombre 5" x1="-.39" y1="-1.46" x2="-.16" y2="-1.46" gradientTransform="translate(276.02 -688.08) scale(536.57 -536.57)" gradientUnits="userSpaceOnUse">
      <stop offset="0" stop-color="#623cea"/>
      <stop offset="1" stop-color="#2859c6"/>
    </linearGradient>
  </defs>
  <g clip-path="url(#b)">
    <g>
      <path d="M32.6,187.56h-10.59l-1.75,5.07h-5.6l9.56-26.63h6.21l9.56,26.63h-5.64l-1.75-5.07ZM31.15,183.29l-3.85-11.12-3.85,11.12h7.7Z" fill="#1e1e1e"/>
      <path d="M48.9,164.44v28.19h-5.33v-28.19h5.33Z" fill="#1e1e1e"/>
      <path d="M73.63,183.68h-15.43c.13,1.52.66,2.72,1.6,3.58.94.86,2.1,1.3,3.47,1.3,1.98,0,3.39-.85,4.23-2.55h5.75c-.61,2.03-1.78,3.7-3.5,5.01-1.73,1.31-3.85,1.96-6.36,1.96-2.03,0-3.85-.45-5.47-1.35-1.61-.9-2.87-2.18-3.77-3.83s-1.35-3.56-1.35-5.71.44-4.1,1.33-5.75c.89-1.65,2.13-2.92,3.73-3.81,1.6-.89,3.44-1.33,5.52-1.33s3.8.43,5.39,1.29c1.59.86,2.82,2.09,3.7,3.68.88,1.59,1.31,3.41,1.31,5.47,0,.76-.05,1.45-.15,2.06ZM68.26,180.09c-.03-1.37-.52-2.47-1.49-3.29-.97-.83-2.15-1.24-3.54-1.24-1.32,0-2.43.4-3.33,1.2-.9.8-1.45,1.91-1.66,3.33h10.02Z" fill="#1e1e1e"/>
    </g>
    <path d="M90.16,192.63l-7.16-8.99v8.99h-5.33v-28.19h5.33v16.04l7.09-8.95h6.93l-9.3,10.59,9.37,10.51h-6.93Z" fill="#1e1e1e"/>
    <path d="M116.6,187.56h-10.59l-1.75,5.07h-5.6l9.56-26.63h6.21l9.56,26.63h-5.64l-1.75-5.07ZM115.16,183.29l-3.85-11.12-3.85,11.12h7.7Z" fill="#1e1e1e"/>
    <g>
      <path d="M139.31,172.11c1.19.62,2.13,1.43,2.82,2.42v-3.01h5.37v21.26c0,1.96-.39,3.7-1.18,5.24-.79,1.54-1.97,2.76-3.54,3.66-1.58.9-3.48,1.35-5.71,1.35-3,0-5.46-.7-7.37-2.1-1.92-1.4-3-3.3-3.26-5.71h5.3c.28.96.88,1.73,1.81,2.3.93.57,2.05.86,3.37.86,1.55,0,2.81-.46,3.77-1.39.96-.93,1.45-2.33,1.45-4.21v-3.28c-.69.99-1.63,1.82-2.84,2.48-1.21.66-2.58.99-4.13.99-1.78,0-3.4-.46-4.88-1.37-1.47-.92-2.64-2.2-3.49-3.87-.85-1.66-1.28-3.57-1.28-5.73s.42-4.03,1.28-5.68c.85-1.65,2.01-2.92,3.47-3.81,1.46-.89,3.09-1.33,4.9-1.33,1.57,0,2.96.31,4.15.93ZM141.37,178.74c-.51-.93-1.19-1.64-2.06-2.13s-1.79-.74-2.78-.74-1.9.24-2.74.72c-.84.48-1.52,1.19-2.04,2.12-.52.93-.78,2.03-.78,3.29s.26,2.38.78,3.33c.52.95,1.21,1.68,2.06,2.19s1.76.76,2.72.76,1.92-.25,2.78-.74,1.55-1.21,2.06-2.13c.51-.93.76-2.04.76-3.33s-.25-2.41-.76-3.33Z" fill="#1e1e1e"/>
      <path d="M172.18,183.68h-15.43c.13,1.52.66,2.72,1.6,3.58.94.86,2.1,1.3,3.47,1.3,1.98,0,3.39-.85,4.23-2.55h5.75c-.61,2.03-1.78,3.7-3.5,5.01-1.73,1.31-3.85,1.96-6.36,1.96-2.03,0-3.85-.45-5.47-1.35-1.61-.9-2.87-2.18-3.77-3.83s-1.35-3.56-1.35-5.71.44-4.1,1.33-5.75c.89-1.65,2.13-2.92,3.73-3.81,1.6-.89,3.44-1.33,5.52-1.33s3.8.43,5.39,1.29c1.59.86,2.82,2.09,3.7,3.68.88,1.59,1.31,3.41,1.31,5.47,0,.76-.05,1.45-.15,2.06ZM166.81,180.09c-.03-1.37-.52-2.47-1.49-3.29s-2.15-1.24-3.54-1.24c-1.32,0-2.43.4-3.33,1.2-.9.8-1.45,1.91-1.66,3.33h10.02Z" fill="#1e1e1e"/>
      <path d="M194.01,173.6c1.55,1.59,2.32,3.8,2.32,6.65v12.38h-5.33v-11.66c0-1.68-.42-2.96-1.26-3.87-.84-.9-1.98-1.35-3.43-1.35s-2.64.45-3.49,1.35c-.85.9-1.28,2.19-1.28,3.87v11.66h-5.33v-21.11h5.33v2.63c.71-.91,1.62-1.63,2.72-2.15,1.1-.52,2.32-.78,3.64-.78,2.51,0,4.55.79,6.1,2.38Z" fill="#1e1e1e"/>
    </g>
    <path d="M201.37,176.34c.89-1.64,2.12-2.91,3.7-3.81,1.57-.9,3.38-1.35,5.41-1.35,2.62,0,4.78.65,6.5,1.96,1.71,1.31,2.86,3.14,3.45,5.5h-5.75c-.3-.91-.82-1.63-1.54-2.15-.72-.52-1.62-.78-2.69-.78-1.52,0-2.73.55-3.62,1.66-.89,1.11-1.33,2.67-1.33,4.71s.44,3.56,1.33,4.67,2.1,1.66,3.62,1.66c2.16,0,3.57-.96,4.23-2.9h5.75c-.58,2.29-1.74,4.1-3.47,5.45-1.73,1.35-3.89,2.02-6.48,2.02-2.03,0-3.83-.45-5.41-1.35-1.58-.9-2.81-2.17-3.7-3.81-.89-1.64-1.33-3.55-1.33-5.73s.44-4.1,1.33-5.73Z" fill="#1e1e1e"/>
    <path d="M244.15,171.52l-13.07,31.09h-5.68l4.57-10.51-8.46-20.57h5.98l5.45,14.74,5.52-14.74h5.68Z" fill="#1e1e1e"/>
    <g clip-path="url(#c)">
      <rect x="98.04" y="89.41" width="61.96" height="62.97" fill="url(#d)"/>
    </g>
    <g clip-path="url(#e)">
      <rect x="59.97" y="43.3" width="140.62" height="106.02" fill="url(#f)"/>
    </g>
  </g>
</svg>